<svg xmlns="http://www.w3.org/2000/svg" viewBox="0 0 480 160" width="480" height="160"><g fill="#6b5a4a"><rect x="4.0" y="27.7" width="12.0" height="46.3" rx="1.5" opacity="0.81"/><rect x="18.5" y="20.2" width="11.7" height="53.8" rx="1.5" opacity="0.56"/><rect x="32.7" y="26.9" width="14.4" height="47.1" rx="1.5" opacity="0.94"/><rect x="49.6" y="7.8" width="20.9" height="66.2" rx="1.5" opacity="0.77"/><rect x="73.0" y="7.6" width="16.7" height="66.4" rx="1.5" opacity="0.82"/><rect x="92.2" y="26.4" width="10.1" height="47.6" rx="1.5" opacity="0.98"/><rect x="104.8" y="6.9" width="20.1" height="67.1" rx="1.5" opacity="0.80"/><rect x="127.4" y="15.7" width="11.2" height="58.3" rx="1.5" opacity="0.67"/><rect x="141.1" y="8.6" width="20.3" height="65.4" rx="1.5" opacity="0.62"/><rect x="163.9" y="17.9" width="19.0" height="56.1" rx="1.5" opacity="0.58"/><rect x="185.3" y="16.0" width="9.3" height="58.0" rx="1.5" opacity="0.92"/><rect x="197.1" y="12.3" width="19.1" height="61.7" rx="1.5" opacity="0.72"/><rect x="218.7" y="11.9" width="16.0" height="62.1" rx="1.5" opacity="0.87"/><rect x="237.3" y="4.3" width="17.6" height="69.7" rx="1.5" opacity="0.75"/><rect x="257.4" y="25.0" width="10.2" height="49.0" rx="1.5" opacity="0.75"/><rect x="270.1" y="10.0" width="10.5" height="64.0" rx="1.5" opacity="0.82"/><rect x="283.1" y="19.9" width="18.7" height="54.1" rx="1.5" opacity="0.65"/><rect x="304.2" y="29.5" width="12.3" height="44.5" rx="1.5" opacity="0.68"/><rect x="319.0" y="7.0" width="13.0" height="67.0" rx="1.5" opacity="0.98"/><rect x="334.5" y="7.3" width="11.3" height="66.7" rx="1.5" opacity="0.81"/><rect x="348.3" y="21.8" width="13.0" height="52.2" rx="1.5" opacity="0.61"/><rect x="363.9" y="27.3" width="20.8" height="46.7" rx="1.5" opacity="0.96"/><rect x="387.1" y="18.7" width="18.7" height="55.3" rx="1.5" opacity="0.87"/><rect x="408.3" y="26.9" width="12.7" height="47.1" rx="1.5" opacity="0.78"/><rect x="423.5" y="23.7" width="10.4" height="50.3" rx="1.5" opacity="0.82"/><rect x="436.4" y="17.2" width="17.4" height="56.8" rx="1.5" opacity="0.64"/><rect x="456.3" y="11.9" width="11.7" height="62.1" rx="1.5" opacity="0.95"/><rect x="0" y="74" width="480" height="6"/><rect x="4.0" y="91.9" width="18.8" height="62.1" rx="1.5" opacity="0.93"/><rect x="25.3" y="106.0" width="13.8" height="48.0" rx="1.5" opacity="0.61"/><rect x="41.6" y="93.1" width="15.5" height="60.9" rx="1.5" opacity="0.99"/><rect x="59.6" y="90.6" width="14.1" height="63.4" rx="1.5" opacity="0.74"/><rect x="76.2" y="108.0" width="9.5" height="46.0" rx="1.5" opacity="0.92"/><rect x="88.3" y="89.2" width="20.7" height="64.8" rx="1.5" opacity="0.63"/><rect x="111.5" y="102.6" width="13.6" height="51.4" rx="1.5" opacity="0.77"/><rect x="127.6" y="86.2" width="19.1" height="67.8" rx="1.5" opacity="0.64"/><rect x="149.2" y="96.2" width="12.8" height="57.8" rx="1.5" opacity="0.67"/><rect x="164.5" y="109.7" width="13.8" height="44.3" rx="1.5" opacity="0.84"/><rect x="180.9" y="97.7" width="13.4" height="56.3" rx="1.5" opacity="0.66"/><rect x="196.8" y="91.8" width="16.1" height="62.2" rx="1.5" opacity="0.80"/><rect x="215.4" y="104.0" width="16.2" height="50.0" rx="1.5" opacity="0.72"/><rect x="234.1" y="85.7" width="14.0" height="68.3" rx="1.5" opacity="0.66"/><rect x="250.7" y="85.3" width="20.0" height="68.7" rx="1.5" opacity="0.81"/><rect x="273.2" y="109.3" width="20.1" height="44.7" rx="1.5" opacity="0.66"/><rect x="295.8" y="96.9" width="15.5" height="57.1" rx="1.5" opacity="0.98"/><rect x="313.8" y="91.6" width="20.8" height="62.4" rx="1.5" opacity="0.92"/><rect x="337.1" y="95.3" width="12.7" height="58.7" rx="1.5" opacity="0.86"/><rect x="352.3" y="101.2" width="9.6" height="52.8" rx="1.5" opacity="0.76"/><rect x="364.4" y="84.7" width="18.2" height="69.3" rx="1.5" opacity="0.57"/><rect x="385.1" y="102.1" width="15.9" height="51.9" rx="1.5" opacity="0.84"/><rect x="403.5" y="97.8" width="17.0" height="56.2" rx="1.5" opacity="0.66"/><rect x="423.0" y="96.8" width="17.7" height="57.2" rx="1.5" opacity="0.57"/><rect x="443.1" y="91.0" width="19.1" height="63.0" rx="1.5" opacity="0.96"/><rect x="0" y="154" width="480" height="6"/></g></svg>